<svg width="180" height="33" viewBox="0 0 180 33" fill="none" xmlns="http://www.w3.org/2000/svg">
<path d="M9.112 24.224C7.46933 24.224 5.99733 23.9573 4.696 23.424C3.39467 22.8907 2.34933 22.1013 1.56 21.056C0.792 20.0107 0.386667 18.752 0.344 17.28H6.168C6.25333 18.112 6.54133 18.752 7.032 19.2C7.52267 19.6267 8.16267 19.84 8.952 19.84C9.76267 19.84 10.4027 19.6587 10.872 19.296C11.3413 18.912 11.576 18.3893 11.576 17.728C11.576 17.1733 11.384 16.7147 11 16.352C10.6373 15.9893 10.1787 15.6907 9.624 15.456C9.09067 15.2213 8.32267 14.9547 7.32 14.656C5.86933 14.208 4.68533 13.76 3.768 13.312C2.85067 12.864 2.06133 12.2027 1.4 11.328C0.738667 10.4533 0.408 9.312 0.408 7.904C0.408 5.81333 1.16533 4.18133 2.68 3.008C4.19467 1.81333 6.168 1.216 8.6 1.216C11.0747 1.216 13.0693 1.81333 14.584 3.008C16.0987 4.18133 16.9093 5.824 17.016 7.936H11.096C11.0533 7.21067 10.7867 6.64533 10.296 6.24C9.80533 5.81333 9.176 5.6 8.408 5.6C7.74667 5.6 7.21333 5.78133 6.808 6.144C6.40267 6.48533 6.2 6.98667 6.2 7.648C6.2 8.37333 6.54133 8.93867 7.224 9.344C7.90667 9.74933 8.97333 10.1867 10.424 10.656C11.8747 11.1467 13.048 11.616 13.944 12.064C14.8613 12.512 15.6507 13.1627 16.312 14.016C16.9733 14.8693 17.304 15.968 17.304 17.312C17.304 18.592 16.9733 19.7547 16.312 20.8C15.672 21.8453 14.7333 22.6773 13.496 23.296C12.2587 23.9147 10.7973 24.224 9.112 24.224ZM28.7995 24.256C27.0502 24.256 25.4715 23.8827 24.0635 23.136C22.6768 22.3893 21.5782 21.3227 20.7675 19.936C19.9782 18.5493 19.5835 16.928 19.5835 15.072C19.5835 13.2373 19.9888 11.6267 20.7995 10.24C21.6102 8.832 22.7195 7.75467 24.1275 7.008C25.5355 6.26133 27.1142 5.888 28.8635 5.888C30.6128 5.888 32.1915 6.26133 33.5995 7.008C35.0075 7.75467 36.1168 8.832 36.9275 10.24C37.7382 11.6267 38.1435 13.2373 38.1435 15.072C38.1435 16.9067 37.7275 18.528 36.8955 19.936C36.0848 21.3227 34.9648 22.3893 33.5355 23.136C32.1275 23.8827 30.5488 24.256 28.7995 24.256ZM28.7995 19.52C29.8448 19.52 30.7302 19.136 31.4555 18.368C32.2022 17.6 32.5755 16.5013 32.5755 15.072C32.5755 13.6427 32.2128 12.544 31.4875 11.776C30.7835 11.008 29.9088 10.624 28.8635 10.624C27.7968 10.624 26.9115 11.008 26.2075 11.776C25.5035 12.5227 25.1515 13.6213 25.1515 15.072C25.1515 16.5013 25.4928 17.6 26.1755 18.368C26.8795 19.136 27.7542 19.52 28.7995 19.52ZM39.9585 15.04C39.9585 13.2053 40.2998 11.5947 40.9825 10.208C41.6865 8.82133 42.6358 7.75467 43.8305 7.008C45.0252 6.26133 46.3585 5.888 47.8305 5.888C49.0892 5.888 50.1878 6.144 51.1265 6.656C52.0865 7.168 52.8225 7.84 53.3345 8.672V6.144H58.8065V24H53.3345V21.472C52.8012 22.304 52.0545 22.976 51.0945 23.488C50.1558 24 49.0572 24.256 47.7985 24.256C46.3478 24.256 45.0252 23.8827 43.8305 23.136C42.6358 22.368 41.6865 21.2907 40.9825 19.904C40.2998 18.496 39.9585 16.8747 39.9585 15.04ZM53.3345 15.072C53.3345 13.7067 52.9505 12.6293 52.1825 11.84C51.4358 11.0507 50.5185 10.656 49.4305 10.656C48.3425 10.656 47.4145 11.0507 46.6465 11.84C45.8998 12.608 45.5265 13.6747 45.5265 15.04C45.5265 16.4053 45.8998 17.4933 46.6465 18.304C47.4145 19.0933 48.3425 19.488 49.4305 19.488C50.5185 19.488 51.4358 19.0933 52.1825 18.304C52.9505 17.5147 53.3345 16.4373 53.3345 15.072ZM68.2373 8.672C68.7706 7.84 69.5066 7.168 70.4453 6.656C71.3839 6.144 72.4826 5.888 73.7413 5.888C75.2133 5.888 76.5466 6.26133 77.7413 7.008C78.9359 7.75467 79.8746 8.82133 80.5573 10.208C81.2613 11.5947 81.6133 13.2053 81.6133 15.04C81.6133 16.8747 81.2613 18.496 80.5573 19.904C79.8746 21.2907 78.9359 22.368 77.7413 23.136C76.5466 23.8827 75.2133 24.256 73.7413 24.256C72.5039 24.256 71.4053 24 70.4453 23.488C69.5066 22.976 68.7706 22.3147 68.2373 21.504V32.512H62.7653V6.144H68.2373V8.672ZM76.0453 15.04C76.0453 13.6747 75.6613 12.608 74.8933 11.84C74.1466 11.0507 73.2186 10.656 72.1093 10.656C71.0213 10.656 70.0933 11.0507 69.3253 11.84C68.5786 12.6293 68.2053 13.7067 68.2053 15.072C68.2053 16.4373 68.5786 17.5147 69.3253 18.304C70.0933 19.0933 71.0213 19.488 72.1093 19.488C73.1973 19.488 74.1253 19.0933 74.8933 18.304C75.6613 17.4933 76.0453 16.4053 76.0453 15.04ZM98.084 12.48C99.3853 12.7573 100.431 13.408 101.22 14.432C102.009 15.4347 102.404 16.5867 102.404 17.888C102.404 19.7653 101.743 21.2587 100.42 22.368C99.1187 23.456 97.2947 24 94.948 24H84.484V1.536H94.596C96.8787 1.536 98.66 2.05867 99.94 3.104C101.241 4.14933 101.892 5.568 101.892 7.36C101.892 8.68267 101.54 9.78133 100.836 10.656C100.153 11.5307 99.236 12.1387 98.084 12.48ZM89.956 10.624H93.54C94.436 10.624 95.1187 10.432 95.588 10.048C96.0787 9.64267 96.324 9.056 96.324 8.288C96.324 7.52 96.0787 6.93333 95.588 6.528C95.1187 6.12267 94.436 5.92 93.54 5.92H89.956V10.624ZM93.988 19.584C94.9053 19.584 95.6093 19.3813 96.1 18.976C96.612 18.5493 96.868 17.9413 96.868 17.152C96.868 16.3627 96.6013 15.744 96.068 15.296C95.556 14.848 94.8413 14.624 93.924 14.624H89.956V19.584H93.988ZM113.706 24.256C111.956 24.256 110.378 23.8827 108.97 23.136C107.583 22.3893 106.484 21.3227 105.674 19.936C104.884 18.5493 104.49 16.928 104.49 15.072C104.49 13.2373 104.895 11.6267 105.706 10.24C106.516 8.832 107.626 7.75467 109.034 7.008C110.442 6.26133 112.02 5.888 113.77 5.888C115.519 5.888 117.098 6.26133 118.506 7.008C119.914 7.75467 121.023 8.832 121.834 10.24C122.644 11.6267 123.05 13.2373 123.05 15.072C123.05 16.9067 122.634 18.528 121.802 19.936C120.991 21.3227 119.871 22.3893 118.442 23.136C117.034 23.8827 115.455 24.256 113.706 24.256ZM113.706 19.52C114.751 19.52 115.636 19.136 116.362 18.368C117.108 17.6 117.482 16.5013 117.482 15.072C117.482 13.6427 117.119 12.544 116.394 11.776C115.69 11.008 114.815 10.624 113.77 10.624C112.703 10.624 111.818 11.008 111.114 11.776C110.41 12.5227 110.058 13.6213 110.058 15.072C110.058 16.5013 110.399 17.6 111.082 18.368C111.786 19.136 112.66 19.52 113.706 19.52ZM124.865 15.04C124.865 13.2053 125.206 11.5947 125.889 10.208C126.593 8.82133 127.542 7.75467 128.737 7.008C129.931 6.26133 131.265 5.888 132.737 5.888C133.995 5.888 135.094 6.144 136.033 6.656C136.993 7.168 137.729 7.84 138.241 8.672V6.144H143.713V24H138.241V21.472C137.707 22.304 136.961 22.976 136.001 23.488C135.062 24 133.963 24.256 132.705 24.256C131.254 24.256 129.931 23.8827 128.737 23.136C127.542 22.368 126.593 21.2907 125.889 19.904C125.206 18.496 124.865 16.8747 124.865 15.04ZM138.241 15.072C138.241 13.7067 137.857 12.6293 137.089 11.84C136.342 11.0507 135.425 10.656 134.337 10.656C133.249 10.656 132.321 11.0507 131.553 11.84C130.806 12.608 130.433 13.6747 130.433 15.04C130.433 16.4053 130.806 17.4933 131.553 18.304C132.321 19.0933 133.249 19.488 134.337 19.488C135.425 19.488 136.342 19.0933 137.089 18.304C137.857 17.5147 138.241 16.4373 138.241 15.072ZM153.144 9.12C153.784 8.13867 154.584 7.37067 155.544 6.816C156.504 6.24 157.57 5.952 158.744 5.952V11.744H157.24C155.874 11.744 154.85 12.0427 154.168 12.64C153.485 13.216 153.144 14.24 153.144 15.712V24H147.672V6.144H153.144V9.12ZM160.271 15.04C160.271 13.2053 160.612 11.5947 161.295 10.208C161.999 8.82133 162.948 7.75467 164.143 7.008C165.338 6.26133 166.671 5.888 168.143 5.888C169.316 5.888 170.383 6.13333 171.343 6.624C172.324 7.11467 173.092 7.776 173.647 8.608V0.32H179.119V24H173.647V21.44C173.135 22.2933 172.399 22.976 171.439 23.488C170.5 24 169.402 24.256 168.143 24.256C166.671 24.256 165.338 23.8827 164.143 23.136C162.948 22.368 161.999 21.2907 161.295 19.904C160.612 18.496 160.271 16.8747 160.271 15.04ZM173.647 15.072C173.647 13.7067 173.263 12.6293 172.495 11.84C171.748 11.0507 170.831 10.656 169.743 10.656C168.655 10.656 167.727 11.0507 166.959 11.84C166.212 12.608 165.839 13.6747 165.839 15.04C165.839 16.4053 166.212 17.4933 166.959 18.304C167.727 19.0933 168.655 19.488 169.743 19.488C170.831 19.488 171.748 19.0933 172.495 18.304C173.263 17.5147 173.647 16.4373 173.647 15.072Z" fill="#9168CB"/>
</svg>
