<svg width="16" height="12" viewBox="0 0 16 12" fill="none" xmlns="http://www.w3.org/2000/svg">
<path d="M7.63571 0.182844C7.81264 -0.060948 8.18704 -0.060948 8.36394 0.182844L11.2728 4.19015L15.3899 2.60214C15.7265 2.47228 16.0741 2.76486 15.9862 3.10393L14.2084 9.96105C14.159 10.1519 13.9812 10.2856 13.7774 10.2856H2.22261C2.01875 10.2856 1.84091 10.1517 1.79154 9.96105L0.0138159 3.10393C-0.0741253 2.76471 0.273473 2.47229 0.610048 2.60214L4.72715 4.19015L7.63606 0.182844H7.63571ZM14.913 3.70915L11.2759 5.11206C11.0842 5.18596 10.8651 5.12296 10.7467 4.95996L7.99988 1.17563L5.25303 4.95959C5.13473 5.1226 4.91555 5.18559 4.72388 5.11169L1.08675 3.70879L2.56941 9.42826H13.4305L14.9132 3.70879L14.913 3.70915ZM13.7774 12C14.0228 12 14.2219 11.8081 14.2219 11.5714C14.2219 11.3348 14.0229 11.1428 13.7774 11.1428H2.22261C1.97723 11.1428 1.77814 11.3346 1.77814 11.5714C1.77814 11.808 1.97709 12 2.22261 12L13.7774 11.9999V12Z" fill="#171B1E"/>
</svg>
